<svg width="30" height="30" viewBox="0 0 30 30" fill="none" xmlns="http://www.w3.org/2000/svg">
<path d="M26.781 3.75H20.5131V2.8125C20.5131 1.2617 18.9794 0 17.0942 0H12.5358C10.6506 0 9.11692 1.2617 9.11692 2.8125V3.75H2.84904C1.27808 3.75 0 4.80141 0 6.09375V9.375C0 9.89273 0.510263 10.3125 1.13962 10.3125H1.76242L2.74697 27.3213C2.83394 28.8234 4.33396 30 6.1619 30H23.4681C25.2961 30 26.7961 28.8234 26.883 27.3213L27.8676 10.3125H28.4904C29.1197 10.3125 29.63 9.89273 29.63 9.375V6.09375C29.63 4.80141 28.3519 3.75 26.781 3.75ZM11.3962 2.8125C11.3962 2.29559 11.9074 1.875 12.5358 1.875H17.0942C17.7226 1.875 18.2338 2.29559 18.2338 2.8125V3.75H11.3962V2.8125ZM2.27923 6.09375C2.27923 5.83529 2.53486 5.625 2.84904 5.625H26.781C27.0951 5.625 27.3508 5.83529 27.3508 6.09375V8.4375C26.9996 8.4375 3.73459 8.4375 2.27923 8.4375V6.09375ZM24.6064 27.2321C24.5774 27.7328 24.0774 28.125 23.4681 28.125H6.1619C5.55256 28.125 5.05256 27.7328 5.02364 27.2321L4.04421 10.3125H25.5858L24.6064 27.2321Z" fill="white"/>
<path d="M14.815 26.25C15.4444 26.25 15.9546 25.8302 15.9546 25.3125V13.125C15.9546 12.6073 15.4444 12.1875 14.815 12.1875C14.1857 12.1875 13.6754 12.6073 13.6754 13.125V25.3125C13.6754 25.8302 14.1856 26.25 14.815 26.25Z" fill="white"/>
<path d="M20.5131 26.25C21.1425 26.25 21.6527 25.8302 21.6527 25.3125V13.125C21.6527 12.6073 21.1425 12.1875 20.5131 12.1875C19.8838 12.1875 19.3735 12.6073 19.3735 13.125V25.3125C19.3735 25.8302 19.8837 26.25 20.5131 26.25Z" fill="white"/>
<path d="M9.11697 26.25C9.74632 26.25 10.2566 25.8302 10.2566 25.3125V13.125C10.2566 12.6073 9.74632 12.1875 9.11697 12.1875C8.48762 12.1875 7.97736 12.6073 7.97736 13.125V25.3125C7.97736 25.8302 8.48755 26.25 9.11697 26.25Z" fill="white"/>
</svg>
